<svg width="205" height="61" viewBox="0 0 205 61" fill="none" xmlns="http://www.w3.org/2000/svg">
<path d="M15.01 1L15.4039 33.6408C15.4039 40.324 20.901 45.8237 27.5846 45.8237C34.2681 45.8237 39.7652 40.3272 39.7652 33.6408C39.7652 26.9955 34.3456 21.5243 27.7111 21.4578" stroke="white" stroke-width="11" stroke-miterlimit="10"/>
<path d="M27.9308 10.4939C40.5956 10.6236 50.9442 21.0821 50.941 33.7525C50.941 46.5083 40.4406 57.0016 27.684 57C14.9275 56.9984 4.43494 46.4941 4.43494 33.7382" stroke="white" stroke-width="8" stroke-miterlimit="10"/>
<path d="M78.0739 18.8929C76.6389 18.8913 75.218 19.1752 73.8939 19.7282L73.8897 19.73L73.8897 19.73C72.616 20.2483 71.5332 21.1469 70.7894 22.3032L70.6417 22.5327H70.3689H70.2756H69.7756V22.0327V11.4704C69.7756 11.1446 69.6461 10.8319 69.4155 10.6013C69.1849 10.3709 68.8722 10.2414 68.5462 10.2414H65.2882C64.9621 10.2414 64.6495 10.3709 64.4189 10.6013C64.4189 10.6014 64.4188 10.6014 64.4188 10.6014M78.0739 18.8929L64.4188 10.6014M78.0739 18.8929C79.3015 18.8984 80.5145 19.16 81.6354 19.6608C82.7564 20.1617 83.7607 20.891 84.5838 21.8021L84.5838 21.8021L84.5876 21.8062C85.4956 22.7887 86.2452 24.0596 86.827 25.634C87.401 27.1875 87.6949 29.0561 87.6938 31.2513V31.2516C87.6938 33.4469 87.4 35.3157 86.8269 36.8693C86.2461 38.4436 85.4967 39.715 84.5876 40.6984L84.5876 40.6984L84.5839 40.7025C83.7606 41.6133 82.7563 42.3423 81.6352 42.8429L81.6351 42.8429C80.5145 43.3436 79.3015 43.6049 78.074 43.6102C76.3293 43.6101 74.7867 43.3345 73.4382 42.7942L73.4382 42.7942L73.4329 42.7921C72.1593 42.2988 71.1096 41.3576 70.4807 40.1453L70.3408 39.8756H70.0369H69.9421H69.4421V40.3756V41.7664V41.7668C69.4422 41.9279 69.4105 42.0878 69.349 42.2368C69.2873 42.3859 69.1969 42.5214 69.0828 42.6355C68.9688 42.7496 68.8335 42.8401 68.6844 42.9019C68.5353 42.9637 68.3756 42.9954 68.2143 42.9954H65.2882C64.9621 42.9954 64.6494 42.8659 64.4188 42.6354M78.0739 18.8929L64.4188 42.6354M64.4188 10.6014C64.1883 10.832 64.0588 11.1447 64.0588 11.4704V41.7664C64.0588 42.0921 64.1883 42.4048 64.4188 42.6354M64.4188 10.6014L64.4188 42.6354M88.1938 31.2516C88.195 29.0136 87.8956 27.0834 87.296 25.4607C86.6964 23.8381 85.9159 22.5068 84.9548 21.4669C84.0851 20.5042 83.0239 19.7336 81.8394 19.2043C80.6548 18.675 79.3727 18.3986 78.0752 18.3929L88.1938 31.2516ZM88.1938 31.2516C88.1938 33.4895 87.8946 35.4197 87.296 37.0424M88.1938 31.2516L87.296 37.0424M87.296 37.0424C86.6973 38.6651 85.917 39.9968 84.9548 41.0378L87.296 37.0424ZM80.5305 25.5447C80.038 24.7771 79.3754 24.1329 78.5941 23.6622L81.1499 34.2292C81.3716 33.2682 81.4826 32.2852 81.4802 31.299L81.9802 31.3007C81.9802 31.3002 81.9802 31.2997 81.9802 31.2992C81.983 30.4678 81.9096 29.6384 81.7613 28.8214H81.7727L81.638 28.2132C81.4282 27.2661 81.0536 26.363 80.531 25.5455L80.5305 25.5447ZM80.5309 37.0052C81.0533 36.1885 81.428 35.2861 81.6376 34.3394L78.5941 23.6622C77.7934 23.1798 76.8425 22.9538 75.7647 22.9582C74.7846 22.9337 73.816 23.1742 72.9614 23.6546L72.9613 23.6545L72.9533 23.6593C72.1599 24.125 71.4869 24.7706 70.9887 25.544L70.9878 25.5455C70.4655 26.3625 70.091 27.2649 69.8811 28.2114C69.6494 29.2244 69.5345 30.2604 69.5385 31.2994C69.5361 32.3225 69.6511 33.3425 69.8812 34.3395C70.0908 35.286 70.4653 36.1885 70.9879 37.0052L70.9885 37.0063C71.4865 37.7804 72.1596 38.4265 72.9531 38.8928L72.9531 38.8928L72.9617 38.8977C73.8169 39.3776 74.7856 39.618 75.7657 39.5938C76.8416 39.593 77.791 39.3672 78.5915 38.8915L78.5942 38.8898C79.3757 38.4186 80.0383 37.7738 80.5306 37.0056L80.5309 37.0052Z" fill="white" stroke="white"/>
<path d="M98.5457 20.2533C99.1961 19.8234 99.9025 19.4847 100.645 19.2468C101.389 19.0102 102.165 18.8908 102.946 18.8926C103.273 18.8986 103.599 18.9387 103.917 19.0119V24.2832C103.734 24.2584 103.539 24.2362 103.333 24.2164C102.892 24.1687 102.449 24.1446 102.006 24.1443H102.006C100.724 24.1443 99.6058 24.3569 98.6708 24.8059C97.7828 25.2215 97.012 25.8515 96.428 26.639L96.428 26.639L96.4236 26.6451C95.8498 27.4437 95.4453 28.3514 95.2349 29.3121C94.9987 30.3563 94.8832 31.424 94.8909 32.4946V41.7691C94.8909 42.0977 94.7604 42.4129 94.528 42.6453C94.2955 42.8777 93.9803 43.0083 93.6518 43.0083H90.4138C90.0853 43.0083 89.7701 42.8777 89.5377 42.6453C89.3052 42.4129 89.1747 42.0977 89.1747 41.7691V20.8006C89.1747 20.472 89.3052 20.1568 89.5376 19.9244C89.7701 19.692 90.0853 19.5614 90.4138 19.5614L90.4149 19.5614L93.3103 19.5551C93.3104 19.5551 93.3106 19.5551 93.3107 19.5551C93.6391 19.5552 93.9541 19.6857 94.1865 19.9181L94.54 19.5645L94.1865 19.9181C94.4189 20.1505 94.5494 20.4657 94.5494 20.7943V23.5897V24.0897H95.0494H95.1443H95.4775L95.6058 23.7821C95.904 23.0668 96.3079 22.4005 96.8042 21.8055L96.8047 21.8049C97.3039 21.2044 97.8901 20.682 98.5436 20.2546L98.5457 20.2533Z" fill="white" stroke="white"/>
<path d="M104.806 26.3017L104.807 26.3018C104.816 26.306 104.827 26.3084 104.838 26.3085H110.416C110.433 26.3071 110.449 26.3005 110.462 26.2893L110.462 26.289C110.476 26.2769 110.485 26.2606 110.487 26.243L110.488 26.2365L110.488 26.2365C110.688 25.0855 111.156 24.1742 111.946 23.583C112.817 22.9289 113.975 22.6313 115.365 22.6311C115.951 22.6284 116.536 22.6696 117.116 22.7547C117.664 22.8311 118.192 23.0135 118.669 23.2916L118.676 23.2956L118.676 23.2957C119.15 23.5819 119.54 23.9891 119.805 24.4754C120.096 25.0001 120.22 25.6652 120.221 26.431C120.254 27.237 120.009 27.9267 119.423 28.4084L119.416 28.4142L119.409 28.4197C118.822 28.8679 118.143 29.1813 117.42 29.3378C116.543 29.5474 115.652 29.6929 114.753 29.7732C113.786 29.867 112.803 29.9917 111.804 30.1471L111.804 30.1472C110.809 30.3004 109.824 30.5076 108.852 30.7681L108.851 30.7686C107.965 31.0026 107.126 31.3865 106.37 31.9035C105.642 32.4146 105.046 33.091 104.63 33.8771L104.627 33.882L104.627 33.8819C104.19 34.686 103.956 35.7396 103.956 37.071C103.956 38.2775 104.157 39.2899 104.542 40.1231L104.543 40.1257C104.913 40.9386 105.471 41.652 106.17 42.2076C106.903 42.7797 107.742 43.1994 108.64 43.4421L108.641 43.4424C109.66 43.7206 110.712 43.8577 111.768 43.8498L111.77 43.8498C113.228 43.846 114.678 43.6255 116.071 43.1957L116.074 43.1948C117.431 42.7844 118.66 42.0322 119.642 41.0102L120.42 40.2011L120.501 41.3205C120.548 41.9667 120.663 42.6058 120.844 43.2272H124.629C124.845 43.2272 125.058 43.1814 125.254 43.0928L125.255 43.0927C125.451 43.0039 125.627 42.8746 125.769 42.7131L125.769 42.7128C125.912 42.5514 126.018 42.3614 126.082 42.1554C126.145 41.9496 126.164 41.7327 126.137 41.519L126.136 41.5169C126.006 40.4479 125.941 39.3719 125.943 38.2949V25.5806C125.943 24.1728 125.628 23.0979 125.048 22.3094C124.431 21.4749 123.618 20.8055 122.68 20.3607L122.68 20.3604C121.637 19.8643 120.522 19.5363 119.377 19.3887L119.373 19.3881L119.373 19.3881C118.155 19.2199 116.927 19.1349 115.698 19.1336C114.373 19.1347 113.052 19.2664 111.753 19.5268L111.748 19.5278L111.748 19.5277C110.531 19.7597 109.361 20.195 108.288 20.8152C107.292 21.3988 106.442 22.2029 105.805 23.1654L105.804 23.1668C105.258 23.9846 104.905 24.9984 104.76 26.2259C104.759 26.2356 104.761 26.2454 104.764 26.2548C104.767 26.2655 104.773 26.275 104.78 26.2827L104.806 26.3017ZM104.806 26.3017C104.797 26.2974 104.788 26.2911 104.78 26.2828L104.806 26.3017ZM114.28 40.3965C115.644 40.3965 116.771 40.1712 117.607 39.6653C118.344 39.2437 118.959 38.6391 119.393 37.9098L119.393 37.9099L119.397 37.903C119.759 37.2718 119.995 36.5759 120.092 35.8544C120.162 35.3336 120.203 34.809 120.213 34.2835L120.213 34.2835L120.213 34.2751L120.219 31.7735L120.222 30.6831L114.28 39.8965M114.28 40.3965V39.8965M114.28 40.3965C114.28 40.3965 114.28 40.3965 114.281 40.3965L114.28 39.8965M114.28 40.3965C113.727 40.3976 113.174 40.3475 112.631 40.2465M114.28 39.8965C113.756 39.8976 113.234 39.8501 112.719 39.7543M112.631 40.2465C112.632 40.2466 112.633 40.2468 112.634 40.247L112.719 39.7543M112.631 40.2465C112.102 40.1545 111.595 39.9642 111.136 39.6854L111.13 39.6819L111.13 39.6818C110.675 39.3966 110.303 38.9956 110.054 38.5198L110.05 38.5122L110.05 38.5121C109.781 37.9748 109.648 37.3791 109.665 36.7783M112.631 40.2465C112.63 40.2463 112.629 40.2461 112.627 40.2459L112.719 39.7543M112.719 39.7543L109.665 36.7783M109.665 36.7783C109.665 36.7841 109.665 36.7899 109.665 36.7958L110.165 36.777M109.665 36.7783L111.395 39.2581C111.015 39.0199 110.705 38.6851 110.497 38.2878C110.262 37.8197 110.148 37.3004 110.165 36.777M109.665 36.7783C109.665 36.7724 109.665 36.7666 109.665 36.7607L110.165 36.777M109.665 36.7783L110.497 35.2157M110.165 36.777C110.145 36.2372 110.259 35.7007 110.497 35.2157M119.719 31.7722L120.045 32.1519C119.94 32.2413 119.831 32.3243 119.718 32.4006L119.719 31.7722ZM119.719 31.7722L119.219 31.771L119.218 32.1208C119.396 32.0219 119.564 31.9052 119.719 31.7722ZM110.497 35.2157C110.709 34.8159 111.008 34.4685 111.372 34.1996L110.497 35.2157ZM112.648 33.5674L112.5 33.0896C112.499 33.0899 112.499 33.0902 112.498 33.0905C112.497 33.0907 112.496 33.091 112.495 33.0913L112.648 33.5674Z" fill="white" stroke="white"/>
<path d="M127.919 19.9471L128.383 20.1329C128.406 20.0769 128.439 20.0266 128.48 19.9845L128.48 19.9845C128.52 19.9426 128.568 19.9099 128.62 19.8879L128.621 19.8878C128.673 19.8655 128.729 19.8542 128.785 19.8542H133.519V19.8542L133.522 19.8542C133.578 19.8538 133.635 19.8649 133.688 19.8869C133.74 19.9088 133.788 19.9414 133.829 19.9835C133.871 20.0256 133.904 20.076 133.926 20.1317C133.949 20.1882 133.96 20.2486 133.96 20.3093L133.96 20.3093V20.3136V42.9176C133.96 43.0402 133.912 43.1561 133.829 43.24C133.747 43.3238 133.637 43.369 133.525 43.369H128.785C128.673 43.369 128.563 43.3238 128.481 43.24C128.398 43.1561 128.35 43.0402 128.35 42.9176V20.3136H128.35L128.35 20.3093C128.35 20.2488 128.361 20.1886 128.384 20.1326L127.919 19.9471ZM127.919 19.9471C127.873 20.0634 127.849 20.188 127.85 20.3136L134.39 19.9456C134.343 19.8288 134.274 19.7227 134.186 19.6335C134.099 19.5442 133.995 19.4735 133.88 19.4256C133.766 19.3777 133.643 19.3534 133.519 19.3542H128.785C128.662 19.3542 128.54 19.3791 128.425 19.4275C128.312 19.4757 128.208 19.5466 128.121 19.6357C128.034 19.725 127.966 19.8307 127.919 19.9471Z" fill="white" stroke="white"/>
<path d="M140.652 19.796H140.651L136.571 19.7912C136.571 19.7912 136.571 19.7912 136.571 19.7912C136.485 19.7913 136.401 19.8081 136.322 19.8407L136.322 19.8407C136.243 19.8734 136.172 19.9214 136.111 19.9818L136.111 19.9821C136.051 20.0422 136.003 20.1139 135.97 20.1929L135.508 20.0018M140.652 19.796L151.654 29.9347C151.654 27.9176 151.337 26.4127 150.704 25.42C150.072 24.4272 148.951 23.9309 147.344 23.9309C145.515 23.9309 144.19 24.4747 143.37 25.5622C142.549 26.6498 142.139 28.4413 142.139 30.9369V42.6001C142.139 42.9048 142.018 43.1971 141.802 43.4128L141.449 43.0589M140.652 19.796C140.825 19.796 140.99 19.8646 141.113 19.9868L141.466 19.633L141.113 19.9866C141.235 20.1089 141.303 20.2743 141.303 20.4468V22.701V23.201H141.803H141.944H142.227L142.373 22.9586C143.181 21.6142 144.214 20.6541 145.472 20.0557L145.472 20.0557L145.476 20.0536C146.706 19.4536 148.056 19.1391 149.424 19.1336M140.652 19.796L149.424 19.1336M135.508 20.0018L135.97 20.1925C135.938 20.2714 135.921 20.3561 135.921 20.4415L135.921 20.442L135.921 42.6001V42.6006C135.921 42.6859 135.938 42.7703 135.97 42.849C136.003 42.9277 136.051 42.9992 136.111 43.0595C136.171 43.1197 136.243 43.1675 136.322 43.2001C136.401 43.2327 136.485 43.2494 136.571 43.2493H136.571H140.989C141.161 43.2493 141.327 43.1808 141.449 43.059C141.449 43.059 141.449 43.0589 141.449 43.0589M135.508 20.0018C135.566 19.8622 135.651 19.7353 135.757 19.6284L135.421 20.442M135.508 20.0018C135.451 20.1414 135.421 20.2911 135.421 20.442M141.449 43.0589C141.571 42.937 141.639 42.7719 141.639 42.6001V30.9369C141.639 28.4116 142.049 26.4823 142.971 25.2611C143.916 24.0082 145.416 23.4309 147.344 23.4309C149.053 23.4309 150.37 23.9645 151.126 25.1512C151.835 26.2631 152.154 27.8825 152.154 29.9347V42.5858V42.5864C152.154 42.6716 152.17 42.756 152.203 42.8348L152.203 42.8351C152.235 42.9131 152.283 42.9845 152.343 43.045M141.449 43.0589L152.343 43.045M135.421 20.442V42.6001C135.421 42.751 135.451 42.9006 135.508 43.0402C135.566 43.1796 135.651 43.3064 135.757 43.4132L135.421 20.442ZM152.343 43.045L151.99 43.399M152.343 43.045L151.741 43.0259C151.799 43.1654 151.883 43.2921 151.99 43.399M152.343 43.045C152.343 43.0452 152.344 43.0454 152.344 43.0456M152.343 43.045C152.343 43.0452 152.344 43.0454 152.344 43.0456M151.99 43.399C152.097 43.5057 152.224 43.5903 152.363 43.648M151.99 43.399L152.344 43.0456M152.344 43.0456L152.555 43.1859M152.555 43.1859C152.554 43.1859 152.554 43.1859 152.554 43.1858L152.363 43.648M152.555 43.1859L152.363 43.648M152.555 43.1859C152.633 43.2185 152.718 43.2352 152.803 43.2351H152.804H157.221H157.222C157.307 43.2352 157.392 43.2184 157.471 43.1858L157.662 43.6481L157.471 43.186C157.55 43.1533 157.622 43.1054 157.682 43.0453L157.682 43.045C157.743 42.9847 157.791 42.913 157.824 42.8343L157.824 42.8342C157.856 42.7557 157.873 42.6714 157.873 42.5858V28.6985V28.6942H157.873C157.885 27.3402 157.753 25.9887 157.481 24.662L157.481 24.6586C157.269 23.5899 156.825 22.5809 156.178 21.7035M152.363 43.648C152.503 43.7057 152.653 43.7352 152.804 43.7351L158.036 43.399C158.143 43.2923 158.227 43.1655 158.285 43.0259C158.343 42.8865 158.373 42.737 158.373 42.5858V28.6985C158.385 27.3093 158.25 25.9227 157.971 24.5616C157.745 23.4179 157.269 22.3382 156.576 21.4M156.178 21.7035C156.18 21.7056 156.182 21.7077 156.183 21.7098L156.576 21.4M156.178 21.7035C156.177 21.7013 156.175 21.6992 156.174 21.697L156.576 21.4M156.178 21.7035C155.52 20.8711 154.654 20.2257 153.667 19.8314L153.659 19.8279L153.659 19.8278C152.58 19.3734 151.176 19.1337 149.424 19.1336M156.576 21.4C155.862 20.4958 154.923 19.7949 153.853 19.3671L149.425 19.1336C149.425 19.1336 149.424 19.1336 149.424 19.1336" fill="white" stroke="white"/>
<path d="M164.943 23.4399V22.9399V21.155C164.943 20.5059 164.457 20.0362 163.925 20.0362H160.972C160.44 20.0362 159.955 20.5052 159.955 21.155V42.3707C159.955 43.0205 160.44 43.4895 160.972 43.4895H164.235C164.768 43.4895 165.253 43.0198 165.253 42.3707V31.1751V31.1748H165.753C165.752 28.6844 166.137 26.8953 166.906 25.8076C167.674 24.72 168.917 24.1761 170.632 24.1761C172.137 24.1761 173.186 24.673 173.779 25.6669C174.372 26.6608 174.668 28.1663 174.668 30.1835V42.3643C174.668 43.2591 175.347 43.9832 176.185 43.9832H179.447C180.285 43.9832 180.965 43.2591 180.965 42.3643L164.943 23.4399ZM164.943 23.4399H165.443H165.574H165.867L166.01 23.1853C166.767 21.8411 167.734 20.8849 168.907 20.2886L168.907 20.2886L168.912 20.2861C170.046 19.6942 171.304 19.3813 172.584 19.3738M164.943 23.4399L172.584 19.3738M172.584 19.3738C174.231 19.3739 175.536 19.6131 176.523 20.0624L176.523 20.0625L176.531 20.0661C177.465 20.4707 178.272 21.1163 178.873 21.9363L172.584 19.3738Z" fill="white" stroke="white"/>
<path d="M198.773 20.0846L193.69 36.0268L193.579 36.3749H193.214H193.119H192.757L192.644 36.0317L187.378 20.0788C187.378 20.0787 187.378 20.0786 187.378 20.0786C187.333 19.9425 187.248 19.8261 187.135 19.744C187.02 19.6604 186.883 19.6153 186.744 19.614H182.145H182.143V19.614C182.035 19.6135 181.928 19.6392 181.83 19.6897C181.734 19.7401 181.65 19.8129 181.588 19.9013C181.526 19.9911 181.486 20.0948 181.471 20.2037C181.458 20.3107 181.47 20.4208 181.508 20.5245C181.508 20.525 181.508 20.5256 181.508 20.5261L189.473 41.8884C189.687 42.4293 189.793 43.0049 189.79 43.5841C189.794 44.4012 189.541 45.1992 189.064 45.8629C188.539 46.6035 187.738 47.0045 186.749 47.1112L186.734 47.1128L186.718 47.1135C186.033 47.1455 185.345 47.1291 184.661 47.0644L198.773 20.0846ZM198.773 20.0846C198.773 20.0846 198.773 20.0846 198.773 20.0845C198.816 19.9487 198.903 19.829 199.019 19.7439C199.134 19.6596 199.273 19.6141 199.416 19.614M198.773 20.0846L199.416 19.614M183.271 46.9337L184.661 47.0644L183.271 46.9337ZM183.271 46.9337V50.8376C183.272 51.0109 183.337 51.1755 183.452 51.3004C183.567 51.4259 183.726 51.5037 183.896 51.5185C184.221 51.5438 184.549 51.569 184.863 51.5909L184.863 51.591C185.526 51.6376 186.2 51.661 186.883 51.661L183.271 46.9337ZM199.416 19.614L203.821 19.614L203.823 19.614C203.931 19.6135 204.038 19.6392 204.136 19.6897C204.232 19.7401 204.316 19.8129 204.378 19.9013C204.44 19.9911 204.48 20.0948 204.495 20.2037C204.508 20.3109 204.496 20.4211 204.458 20.5249C204.458 20.5253 204.458 20.5257 204.458 20.5261L194.832 46.4463L194.831 46.449C194.129 48.3727 193.174 49.6887 192 50.4643C190.819 51.242 189.131 51.6598 186.883 51.661L199.416 19.614Z" fill="white" stroke="white"/>
<path d="M134.08 13.947C134.08 15.6038 132.762 16.9319 131.155 16.9319C129.548 16.9319 128.23 15.6038 128.23 13.947C128.23 12.2902 129.548 10.962 131.155 10.962C132.762 10.962 134.08 12.2902 134.08 13.947Z" fill="white" stroke="white"/>
<mask id="path-11-outside-1_125_47" maskUnits="userSpaceOnUse" x="62.9913" y="47.7088" width="100" height="10" fill="black">
<rect fill="white" x="62.9913" y="47.7088" width="100" height="10"/>
<path d="M68.6658 54.6941C68.6658 54.4909 68.6319 54.3097 68.5641 54.1505C68.4964 53.9913 68.3846 53.849 68.2288 53.7237C68.0764 53.595 67.8698 53.4764 67.6089 53.368C67.3515 53.2562 67.0297 53.1461 66.6436 53.0378C66.2743 52.9328 65.9407 52.8176 65.6426 52.6923C65.3445 52.5669 65.0888 52.423 64.8754 52.2604C64.6654 52.0978 64.5045 51.9081 64.3927 51.6913C64.2809 51.4711 64.2251 51.2154 64.2251 50.9241C64.2251 50.6396 64.286 50.3804 64.408 50.1467C64.5299 49.913 64.701 49.7115 64.9211 49.5421C65.1447 49.3727 65.4072 49.2423 65.7087 49.1509C66.0135 49.0594 66.3472 49.0137 66.7096 49.0137C67.2279 49.0137 67.675 49.1119 68.051 49.3084C68.4303 49.5048 68.7233 49.7707 68.93 50.1061C69.14 50.438 69.245 50.8106 69.245 51.2239H68.62C68.62 50.9021 68.5438 50.6159 68.3914 50.3652C68.2423 50.1112 68.0256 49.913 67.741 49.7707C67.4599 49.6251 67.1161 49.5523 66.7096 49.5523C66.3031 49.5523 65.961 49.6149 65.6833 49.7403C65.4089 49.8622 65.2006 50.0265 65.0583 50.2331C64.9194 50.4363 64.85 50.6633 64.85 50.9139C64.85 51.0901 64.8839 51.2527 64.9516 51.4017C65.0194 51.5474 65.1295 51.6845 65.2819 51.8133C65.4377 51.9386 65.6426 52.0571 65.8967 52.1689C66.1507 52.2773 66.464 52.3806 66.8366 52.4789C67.2296 52.5872 67.5784 52.7075 67.8833 52.8396C68.1882 52.9717 68.4456 53.1241 68.6556 53.2969C68.8656 53.4662 69.0248 53.6644 69.1332 53.8913C69.2416 54.1183 69.2958 54.3825 69.2958 54.684C69.2958 54.9854 69.2314 55.2564 69.1027 55.4969C68.9774 55.734 68.7996 55.9356 68.5692 56.1015C68.3423 56.2675 68.073 56.3945 67.7614 56.4826C67.4531 56.5707 67.1161 56.6147 66.7503 56.6147C66.4217 56.6147 66.0948 56.5724 65.7696 56.4877C65.4445 56.403 65.1464 56.2726 64.8754 56.0965C64.6078 55.9169 64.3927 55.6866 64.2301 55.4055C64.0709 55.1243 63.9913 54.789 63.9913 54.3994H64.6112C64.6112 54.7111 64.6739 54.9736 64.7992 55.187C64.9245 55.4004 65.0905 55.5731 65.2971 55.7052C65.5071 55.8373 65.7375 55.9339 65.9881 55.9948C66.2422 56.0524 66.4962 56.0812 66.7503 56.0812C67.1398 56.0812 67.4768 56.0236 67.7614 55.9085C68.0493 55.7933 68.2711 55.6324 68.427 55.4258C68.5862 55.2158 68.6658 54.9719 68.6658 54.6941Z"/>
<path d="M72.9522 52.1537V56.5131H72.3425V51.0156H72.9268L72.9522 52.1537ZM72.8404 53.4239L72.5457 53.2715C72.5661 52.9463 72.627 52.6414 72.7286 52.3569C72.8337 52.0724 72.9793 51.8217 73.1656 51.6049C73.3519 51.3882 73.5755 51.2188 73.8363 51.0969C74.0971 50.9749 74.3935 50.9139 74.7254 50.9139C74.993 50.9139 75.2352 50.9512 75.452 51.0257C75.6722 51.0969 75.8585 51.2103 76.0109 51.3661C76.1667 51.5186 76.287 51.7184 76.3716 51.9657C76.4563 52.213 76.4987 52.5093 76.4987 52.8548V56.5131H75.894V52.8752C75.894 52.5093 75.8365 52.2231 75.7213 52.0165C75.6095 51.8099 75.452 51.6625 75.2488 51.5745C75.0489 51.4864 74.8169 51.4424 74.5527 51.4424C74.2411 51.4424 73.9769 51.5067 73.7601 51.6354C73.5467 51.7608 73.3722 51.925 73.2367 52.1283C73.1046 52.3281 73.0064 52.5432 72.942 52.7735C72.8777 53.0005 72.8438 53.2173 72.8404 53.4239ZM76.4936 52.9463L76.0871 52.9565C76.1041 52.6889 76.165 52.4331 76.27 52.1892C76.3784 51.9454 76.5258 51.7286 76.7121 51.5389C76.8984 51.3458 77.1202 51.1934 77.3777 51.0816C77.6385 50.9698 77.9315 50.9139 78.2567 50.9139C78.5412 50.9139 78.7952 50.9529 79.0188 51.0308C79.2424 51.1053 79.4303 51.2256 79.5828 51.3915C79.7386 51.5541 79.8571 51.7625 79.9384 52.0165C80.0197 52.2705 80.0604 52.5754 80.0604 52.9311V56.5131H79.4507V52.926C79.4507 52.5364 79.3931 52.235 79.2779 52.0216C79.1661 51.8048 79.0103 51.6541 78.8105 51.5694C78.6106 51.4847 78.3769 51.4424 78.1093 51.4424C77.8451 51.4457 77.6131 51.4949 77.4132 51.5897C77.2134 51.6812 77.0457 51.8031 76.9102 51.9555C76.7781 52.1046 76.6765 52.2655 76.6054 52.4382C76.5376 52.611 76.5004 52.7803 76.4936 52.9463Z"/>
<path d="M86.8212 55.5274V52.6923C86.8212 52.4314 86.767 52.2062 86.6586 52.0165C86.5502 51.8268 86.391 51.6812 86.181 51.5795C85.971 51.4779 85.7119 51.4271 85.4037 51.4271C85.1191 51.4271 84.8651 51.4779 84.6415 51.5795C84.4213 51.6778 84.2469 51.8116 84.1182 51.9809C83.9929 52.1469 83.9302 52.3315 83.9302 52.5347L83.3205 52.5297C83.3205 52.323 83.3713 52.1232 83.4729 51.9301C83.5745 51.737 83.7185 51.5643 83.9048 51.4119C84.0911 51.2594 84.313 51.1392 84.5704 51.0511C84.8312 50.9597 85.1174 50.9139 85.4291 50.9139C85.822 50.9139 86.1675 50.98 86.4656 51.1121C86.767 51.2442 87.0024 51.4424 87.1718 51.7066C87.3412 51.9708 87.4258 52.3027 87.4258 52.7024V55.3597C87.4258 55.5494 87.4394 55.7459 87.4665 55.9491C87.497 56.1523 87.5393 56.32 87.5935 56.4521V56.5131H86.9482C86.9076 56.3911 86.8754 56.2387 86.8517 56.0558C86.8314 55.8695 86.8212 55.6934 86.8212 55.5274ZM86.9635 53.3121L86.9736 53.7796H85.7796C85.468 53.7796 85.1886 53.8084 84.9413 53.8659C84.6974 53.9201 84.4908 54.0014 84.3214 54.1098C84.1521 54.2148 84.0216 54.3419 83.9302 54.4909C83.8421 54.6399 83.7981 54.8093 83.7981 54.999C83.7981 55.1954 83.8472 55.375 83.9454 55.5376C84.0471 55.7001 84.1893 55.8306 84.3722 55.9288C84.5585 56.0236 84.7787 56.0711 85.0327 56.0711C85.3715 56.0711 85.6696 56.0084 85.927 55.8831C86.1878 55.7577 86.4029 55.5934 86.5723 55.3902C86.7416 55.187 86.8551 54.9651 86.9127 54.7246L87.1769 55.0752C87.1329 55.2446 87.0516 55.419 86.933 55.5985C86.8178 55.7747 86.6671 55.9406 86.4808 56.0965C86.2945 56.2489 86.0743 56.3742 85.8203 56.4724C85.5696 56.5673 85.2851 56.6147 84.9667 56.6147C84.6076 56.6147 84.2943 56.547 84.0267 56.4115C83.7625 56.276 83.5559 56.0914 83.4069 55.8577C83.2612 55.6205 83.1884 55.353 83.1884 55.0549C83.1884 54.7839 83.246 54.5417 83.3611 54.3283C83.4763 54.1115 83.6423 53.9286 83.8591 53.7796C84.0792 53.6271 84.3434 53.512 84.6517 53.4341C84.9633 53.3528 85.3122 53.3121 85.6983 53.3121H86.9635Z"/>
<path d="M91.5345 51.925V56.5131H90.9298V51.0156H91.5192L91.5345 51.925ZM93.4804 50.9749L93.4652 51.5338C93.3975 51.5236 93.3314 51.5152 93.267 51.5084C93.2027 51.5016 93.1333 51.4982 93.0587 51.4982C92.7945 51.4982 92.5625 51.5474 92.3626 51.6456C92.1662 51.7404 92.0002 51.8742 91.8647 52.047C91.7292 52.2163 91.6259 52.4162 91.5548 52.6465C91.4837 52.8735 91.443 53.1174 91.4328 53.3782L91.2093 53.4646C91.2093 53.1055 91.2465 52.7719 91.3211 52.4636C91.3956 52.1554 91.5091 51.8861 91.6615 51.6558C91.8173 51.422 92.0121 51.2408 92.2458 51.1121C92.4829 50.98 92.7607 50.9139 93.0791 50.9139C93.157 50.9139 93.2332 50.9207 93.3077 50.9343C93.3856 50.9444 93.4432 50.958 93.4804 50.9749Z"/>
<path d="M98.6408 51.0156V51.5135H95.887V51.0156H98.6408ZM96.8981 49.6031H97.5027V55.1768C97.5027 55.4309 97.5366 55.6222 97.6043 55.751C97.6721 55.8797 97.7601 55.966 97.8685 56.0101C97.9769 56.0541 98.0938 56.0761 98.2191 56.0761C98.3106 56.0761 98.3986 56.0711 98.4833 56.0609C98.568 56.0473 98.6442 56.0338 98.7119 56.0202L98.7373 56.5334C98.6628 56.5571 98.5663 56.5758 98.4477 56.5893C98.3292 56.6062 98.2106 56.6147 98.0921 56.6147C97.8584 56.6147 97.6517 56.5724 97.4722 56.4877C97.2927 56.3996 97.1521 56.2506 97.0505 56.0406C96.9489 55.8272 96.8981 55.5376 96.8981 55.1717V49.6031Z"/>
<path d="M110.532 54.6941C110.532 54.4909 110.498 54.3097 110.43 54.1505C110.362 53.9913 110.25 53.849 110.095 53.7237C109.942 53.595 109.736 53.4764 109.475 53.368C109.217 53.2562 108.895 53.1461 108.509 53.0378C108.14 52.9328 107.806 52.8176 107.508 52.6923C107.21 52.5669 106.955 52.423 106.741 52.2604C106.531 52.0978 106.37 51.9081 106.258 51.6913C106.147 51.4711 106.091 51.2154 106.091 50.9241C106.091 50.6396 106.152 50.3804 106.274 50.1467C106.396 49.913 106.567 49.7115 106.787 49.5421C107.01 49.3727 107.273 49.2423 107.574 49.1509C107.879 49.0594 108.213 49.0137 108.575 49.0137C109.094 49.0137 109.541 49.1119 109.917 49.3084C110.296 49.5048 110.589 49.7707 110.796 50.1061C111.006 50.438 111.111 50.8106 111.111 51.2239H110.486C110.486 50.9021 110.41 50.6159 110.257 50.3652C110.108 50.1112 109.891 49.913 109.607 49.7707C109.326 49.6251 108.982 49.5523 108.575 49.5523C108.169 49.5523 107.827 49.6149 107.549 49.7403C107.275 49.8622 107.066 50.0265 106.924 50.2331C106.785 50.4363 106.716 50.6633 106.716 50.9139C106.716 51.0901 106.75 51.2527 106.817 51.4017C106.885 51.5474 106.995 51.6845 107.148 51.8133C107.303 51.9386 107.508 52.0571 107.762 52.1689C108.016 52.2773 108.33 52.3806 108.702 52.4789C109.095 52.5872 109.444 52.7075 109.749 52.8396C110.054 52.9717 110.311 53.1241 110.521 53.2969C110.731 53.4662 110.891 53.6644 110.999 53.8913C111.107 54.1183 111.162 54.3825 111.162 54.684C111.162 54.9854 111.097 55.2564 110.968 55.4969C110.843 55.734 110.665 55.9356 110.435 56.1015C110.208 56.2675 109.939 56.3945 109.627 56.4826C109.319 56.5707 108.982 56.6147 108.616 56.6147C108.287 56.6147 107.961 56.5724 107.635 56.4877C107.31 56.403 107.012 56.2726 106.741 56.0965C106.474 55.9169 106.258 55.6866 106.096 55.4055C105.937 55.1243 105.857 54.789 105.857 54.3994H106.477C106.477 54.7111 106.54 54.9736 106.665 55.187C106.79 55.4004 106.956 55.5731 107.163 55.7052C107.373 55.8373 107.603 55.9339 107.854 55.9948C108.108 56.0524 108.362 56.0812 108.616 56.0812C109.006 56.0812 109.343 56.0236 109.627 55.9085C109.915 55.7933 110.137 55.6324 110.293 55.4258C110.452 55.2158 110.532 54.9719 110.532 54.6941Z"/>
<path d="M113.908 53.8507V53.683C113.908 53.2833 113.966 52.9141 114.081 52.5754C114.196 52.2367 114.361 51.9437 114.574 51.6964C114.791 51.4491 115.05 51.2577 115.351 51.1223C115.653 50.9834 115.988 50.9139 116.357 50.9139C116.73 50.9139 117.067 50.9834 117.369 51.1223C117.67 51.2577 117.929 51.4491 118.146 51.6964C118.363 51.9437 118.529 52.2367 118.644 52.5754C118.759 52.9141 118.817 53.2833 118.817 53.683V53.8507C118.817 54.2504 118.759 54.6196 118.644 54.9583C118.529 55.2937 118.363 55.585 118.146 55.8322C117.933 56.0795 117.675 56.2726 117.374 56.4115C117.072 56.547 116.737 56.6147 116.368 56.6147C115.995 56.6147 115.658 56.547 115.357 56.4115C115.055 56.2726 114.796 56.0795 114.579 55.8322C114.362 55.585 114.196 55.2937 114.081 54.9583C113.966 54.6196 113.908 54.2504 113.908 53.8507ZM114.513 53.683V53.8507C114.513 54.1522 114.554 54.4384 114.635 54.7094C114.716 54.977 114.835 55.2158 114.991 55.4258C115.147 55.6324 115.34 55.795 115.57 55.9135C115.8 56.0321 116.066 56.0914 116.368 56.0914C116.666 56.0914 116.928 56.0321 117.155 55.9135C117.386 55.795 117.579 55.6324 117.734 55.4258C117.89 55.2158 118.007 54.977 118.085 54.7094C118.166 54.4384 118.207 54.1522 118.207 53.8507V53.683C118.207 53.385 118.166 53.1021 118.085 52.8345C118.007 52.5669 117.889 52.3281 117.729 52.1181C117.574 51.9081 117.38 51.7421 117.15 51.6202C116.92 51.4982 116.656 51.4373 116.357 51.4373C116.059 51.4373 115.795 51.4982 115.565 51.6202C115.338 51.7421 115.145 51.9081 114.986 52.1181C114.83 52.3281 114.711 52.5669 114.63 52.8345C114.552 53.1021 114.513 53.385 114.513 53.683Z"/>
<path d="M122.625 48.7088V56.5131H122.021V48.7088H122.625Z"/>
<path d="M129.681 55.2429V51.0156H130.291V56.5131H129.706L129.681 55.2429ZM129.793 54.2267L130.108 54.2165C130.108 54.562 130.067 54.8804 129.986 55.1717C129.905 55.463 129.778 55.7171 129.605 55.9339C129.432 56.1507 129.208 56.3183 128.934 56.4369C128.66 56.5554 128.329 56.6147 127.943 56.6147C127.676 56.6147 127.43 56.5774 127.207 56.5029C126.986 56.425 126.797 56.3031 126.638 56.1371C126.478 55.9711 126.355 55.756 126.267 55.4918C126.182 55.2276 126.14 54.9075 126.14 54.5315V51.0156H126.744V54.5417C126.744 54.8364 126.776 55.082 126.841 55.2784C126.909 55.4749 127 55.6324 127.115 55.751C127.234 55.8695 127.369 55.9542 127.522 56.005C127.674 56.0558 127.838 56.0812 128.014 56.0812C128.462 56.0812 128.814 55.9948 129.071 55.8221C129.332 55.6493 129.517 55.4224 129.625 55.1412C129.737 54.8567 129.793 54.5519 129.793 54.2267Z"/>
<path d="M135.832 51.0156V51.5135H133.078V51.0156H135.832ZM134.089 49.6031H134.694V55.1768C134.694 55.4309 134.728 55.6222 134.796 55.751C134.863 55.8797 134.951 55.966 135.06 56.0101C135.168 56.0541 135.285 56.0761 135.41 56.0761C135.502 56.0761 135.59 56.0711 135.675 56.0609C135.759 56.0473 135.836 56.0338 135.903 56.0202L135.929 56.5334C135.854 56.5571 135.758 56.5758 135.639 56.5893C135.521 56.6062 135.402 56.6147 135.283 56.6147C135.05 56.6147 134.843 56.5724 134.664 56.4877C134.484 56.3996 134.343 56.2506 134.242 56.0406C134.14 55.8272 134.089 55.5376 134.089 55.1717V49.6031Z"/>
<path d="M139.656 51.0156V56.5131H139.052V51.0156H139.656ZM138.945 49.4252C138.945 49.3101 138.98 49.2135 139.052 49.1356C139.126 49.0543 139.228 49.0137 139.356 49.0137C139.485 49.0137 139.587 49.0543 139.661 49.1356C139.739 49.2135 139.778 49.3101 139.778 49.4252C139.778 49.537 139.739 49.6336 139.661 49.7148C139.587 49.7928 139.485 49.8317 139.356 49.8317C139.228 49.8317 139.126 49.7928 139.052 49.7148C138.98 49.6336 138.945 49.537 138.945 49.4252Z"/>
<path d="M142.855 53.8507V53.683C142.855 53.2833 142.913 52.9141 143.028 52.5754C143.143 52.2367 143.308 51.9437 143.521 51.6964C143.738 51.4491 143.997 51.2577 144.298 51.1223C144.6 50.9834 144.935 50.9139 145.304 50.9139C145.677 50.9139 146.014 50.9834 146.315 51.1223C146.617 51.2577 146.876 51.4491 147.093 51.6964C147.31 51.9437 147.476 52.2367 147.591 52.5754C147.706 52.9141 147.764 53.2833 147.764 53.683V53.8507C147.764 54.2504 147.706 54.6196 147.591 54.9583C147.476 55.2937 147.31 55.585 147.093 55.8322C146.879 56.0795 146.622 56.2726 146.321 56.4115C146.019 56.547 145.684 56.6147 145.315 56.6147C144.942 56.6147 144.605 56.547 144.303 56.4115C144.002 56.2726 143.743 56.0795 143.526 55.8322C143.309 55.585 143.143 55.2937 143.028 54.9583C142.913 54.6196 142.855 54.2504 142.855 53.8507ZM143.46 53.683V53.8507C143.46 54.1522 143.501 54.4384 143.582 54.7094C143.663 54.977 143.782 55.2158 143.938 55.4258C144.093 55.6324 144.286 55.795 144.517 55.9135C144.747 56.0321 145.013 56.0914 145.315 56.0914C145.613 56.0914 145.875 56.0321 146.102 55.9135C146.332 55.795 146.525 55.6324 146.681 55.4258C146.837 55.2158 146.954 54.977 147.032 54.7094C147.113 54.4384 147.154 54.1522 147.154 53.8507V53.683C147.154 53.385 147.113 53.1021 147.032 52.8345C146.954 52.5669 146.835 52.3281 146.676 52.1181C146.52 51.9081 146.327 51.7421 146.097 51.6202C145.867 51.4982 145.602 51.4373 145.304 51.4373C145.006 51.4373 144.742 51.4982 144.512 51.6202C144.285 51.7421 144.092 51.9081 143.933 52.1181C143.777 52.3281 143.658 52.5669 143.577 52.8345C143.499 53.1021 143.46 53.385 143.46 53.683Z"/>
<path d="M151.501 52.1892V56.5131H150.897V51.0156H151.476L151.501 52.1892ZM151.364 53.4239L151.095 53.2715C151.115 52.9463 151.181 52.6414 151.293 52.3569C151.405 52.0724 151.555 51.8217 151.745 51.6049C151.938 51.3882 152.163 51.2188 152.421 51.0969C152.682 50.9749 152.97 50.9139 153.285 50.9139C153.559 50.9139 153.805 50.9512 154.021 51.0257C154.238 51.1002 154.423 51.2188 154.575 51.3814C154.728 51.544 154.843 51.7523 154.921 52.0063C155.002 52.2604 155.043 52.5703 155.043 52.9361V56.5131H154.433V52.9311C154.433 52.5517 154.38 52.2553 154.275 52.0419C154.17 51.8251 154.021 51.671 153.828 51.5795C153.635 51.4881 153.407 51.4424 153.142 51.4424C152.851 51.4424 152.595 51.5067 152.375 51.6354C152.158 51.7608 151.975 51.925 151.826 52.1283C151.681 52.3281 151.569 52.5432 151.491 52.7735C151.413 53.0005 151.371 53.2173 151.364 53.4239Z"/>
<path d="M161.783 55.1108C161.783 54.9617 161.746 54.8144 161.671 54.6687C161.597 54.5231 161.453 54.3893 161.239 54.2673C161.029 54.1454 160.72 54.0421 160.31 53.9574C160.005 53.8897 159.732 53.8134 159.492 53.7288C159.255 53.6441 159.055 53.5425 158.892 53.4239C158.73 53.3053 158.606 53.1631 158.521 52.9971C158.437 52.8311 158.394 52.6347 158.394 52.4077C158.394 52.2045 158.438 52.0131 158.526 51.8336C158.618 51.6507 158.746 51.4915 158.912 51.356C159.082 51.2171 159.285 51.1087 159.522 51.0308C159.763 50.9529 160.032 50.9139 160.33 50.9139C160.753 50.9139 161.116 50.9868 161.417 51.1324C161.722 51.2747 161.954 51.4695 162.113 51.7167C162.276 51.964 162.357 52.2434 162.357 52.5551H161.753C161.753 52.3654 161.697 52.1859 161.585 52.0165C161.477 51.8471 161.316 51.7083 161.102 51.5999C160.892 51.4915 160.635 51.4373 160.33 51.4373C160.015 51.4373 159.759 51.4847 159.563 51.5795C159.366 51.6744 159.222 51.7946 159.131 51.9403C159.043 52.0859 158.999 52.2367 158.999 52.3925C158.999 52.5144 159.017 52.6262 159.055 52.7278C159.095 52.8261 159.166 52.9175 159.268 53.0022C159.373 53.0869 159.522 53.1665 159.715 53.241C159.908 53.3155 160.159 53.3883 160.467 53.4595C160.911 53.5577 161.273 53.6779 161.554 53.8202C161.839 53.9591 162.049 54.1318 162.185 54.3385C162.32 54.5417 162.388 54.789 162.388 55.0803C162.388 55.3072 162.34 55.5155 162.245 55.7052C162.151 55.8915 162.013 56.0524 161.834 56.1879C161.658 56.3234 161.444 56.4284 161.194 56.5029C160.946 56.5774 160.669 56.6147 160.36 56.6147C159.896 56.6147 159.504 56.5385 159.182 56.3861C158.863 56.2303 158.621 56.027 158.455 55.7764C158.293 55.5223 158.211 55.253 158.211 54.9685H158.816C158.836 55.253 158.926 55.4783 159.085 55.6443C159.244 55.8068 159.439 55.922 159.669 55.9898C159.903 56.0575 160.134 56.0914 160.36 56.0914C160.672 56.0914 160.933 56.0456 161.143 55.9542C161.353 55.8627 161.512 55.7425 161.621 55.5934C161.729 55.4444 161.783 55.2835 161.783 55.1108Z"/>
</mask>
<path d="M68.6658 54.6941C68.6658 54.4909 68.6319 54.3097 68.5641 54.1505C68.4964 53.9913 68.3846 53.849 68.2288 53.7237C68.0764 53.595 67.8698 53.4764 67.6089 53.368C67.3515 53.2562 67.0297 53.1461 66.6436 53.0378C66.2743 52.9328 65.9407 52.8176 65.6426 52.6923C65.3445 52.5669 65.0888 52.423 64.8754 52.2604C64.6654 52.0978 64.5045 51.9081 64.3927 51.6913C64.2809 51.4711 64.2251 51.2154 64.2251 50.9241C64.2251 50.6396 64.286 50.3804 64.408 50.1467C64.5299 49.913 64.701 49.7115 64.9211 49.5421C65.1447 49.3727 65.4072 49.2423 65.7087 49.1509C66.0135 49.0594 66.3472 49.0137 66.7096 49.0137C67.2279 49.0137 67.675 49.1119 68.051 49.3084C68.4303 49.5048 68.7233 49.7707 68.93 50.1061C69.14 50.438 69.245 50.8106 69.245 51.2239H68.62C68.62 50.9021 68.5438 50.6159 68.3914 50.3652C68.2423 50.1112 68.0256 49.913 67.741 49.7707C67.4599 49.6251 67.1161 49.5523 66.7096 49.5523C66.3031 49.5523 65.961 49.6149 65.6833 49.7403C65.4089 49.8622 65.2006 50.0265 65.0583 50.2331C64.9194 50.4363 64.85 50.6633 64.85 50.9139C64.85 51.0901 64.8839 51.2527 64.9516 51.4017C65.0194 51.5474 65.1295 51.6845 65.2819 51.8133C65.4377 51.9386 65.6426 52.0571 65.8967 52.1689C66.1507 52.2773 66.464 52.3806 66.8366 52.4789C67.2296 52.5872 67.5784 52.7075 67.8833 52.8396C68.1882 52.9717 68.4456 53.1241 68.6556 53.2969C68.8656 53.4662 69.0248 53.6644 69.1332 53.8913C69.2416 54.1183 69.2958 54.3825 69.2958 54.684C69.2958 54.9854 69.2314 55.2564 69.1027 55.4969C68.9774 55.734 68.7996 55.9356 68.5692 56.1015C68.3423 56.2675 68.073 56.3945 67.7614 56.4826C67.4531 56.5707 67.1161 56.6147 66.7503 56.6147C66.4217 56.6147 66.0948 56.5724 65.7696 56.4877C65.4445 56.403 65.1464 56.2726 64.8754 56.0965C64.6078 55.9169 64.3927 55.6866 64.2301 55.4055C64.0709 55.1243 63.9913 54.789 63.9913 54.3994H64.6112C64.6112 54.7111 64.6739 54.9736 64.7992 55.187C64.9245 55.4004 65.0905 55.5731 65.2971 55.7052C65.5071 55.8373 65.7375 55.9339 65.9881 55.9948C66.2422 56.0524 66.4962 56.0812 66.7503 56.0812C67.1398 56.0812 67.4768 56.0236 67.7614 55.9085C68.0493 55.7933 68.2711 55.6324 68.427 55.4258C68.5862 55.2158 68.6658 54.9719 68.6658 54.6941Z" fill="white"/>
<path d="M72.9522 52.1537V56.5131H72.3425V51.0156H72.9268L72.9522 52.1537ZM72.8404 53.4239L72.5457 53.2715C72.5661 52.9463 72.627 52.6414 72.7286 52.3569C72.8337 52.0724 72.9793 51.8217 73.1656 51.6049C73.3519 51.3882 73.5755 51.2188 73.8363 51.0969C74.0971 50.9749 74.3935 50.9139 74.7254 50.9139C74.993 50.9139 75.2352 50.9512 75.452 51.0257C75.6722 51.0969 75.8585 51.2103 76.0109 51.3661C76.1667 51.5186 76.287 51.7184 76.3716 51.9657C76.4563 52.213 76.4987 52.5093 76.4987 52.8548V56.5131H75.894V52.8752C75.894 52.5093 75.8365 52.2231 75.7213 52.0165C75.6095 51.8099 75.452 51.6625 75.2488 51.5745C75.0489 51.4864 74.8169 51.4424 74.5527 51.4424C74.2411 51.4424 73.9769 51.5067 73.7601 51.6354C73.5467 51.7608 73.3722 51.925 73.2367 52.1283C73.1046 52.3281 73.0064 52.5432 72.942 52.7735C72.8777 53.0005 72.8438 53.2173 72.8404 53.4239ZM76.4936 52.9463L76.0871 52.9565C76.1041 52.6889 76.165 52.4331 76.27 52.1892C76.3784 51.9454 76.5258 51.7286 76.7121 51.5389C76.8984 51.3458 77.1202 51.1934 77.3777 51.0816C77.6385 50.9698 77.9315 50.9139 78.2567 50.9139C78.5412 50.9139 78.7952 50.9529 79.0188 51.0308C79.2424 51.1053 79.4303 51.2256 79.5828 51.3915C79.7386 51.5541 79.8571 51.7625 79.9384 52.0165C80.0197 52.2705 80.0604 52.5754 80.0604 52.9311V56.5131H79.4507V52.926C79.4507 52.5364 79.3931 52.235 79.2779 52.0216C79.1661 51.8048 79.0103 51.6541 78.8105 51.5694C78.6106 51.4847 78.3769 51.4424 78.1093 51.4424C77.8451 51.4457 77.6131 51.4949 77.4132 51.5897C77.2134 51.6812 77.0457 51.8031 76.9102 51.9555C76.7781 52.1046 76.6765 52.2655 76.6054 52.4382C76.5376 52.611 76.5004 52.7803 76.4936 52.9463Z" fill="white"/>
<path d="M86.8212 55.5274V52.6923C86.8212 52.4314 86.767 52.2062 86.6586 52.0165C86.5502 51.8268 86.391 51.6812 86.181 51.5795C85.971 51.4779 85.7119 51.4271 85.4037 51.4271C85.1191 51.4271 84.8651 51.4779 84.6415 51.5795C84.4213 51.6778 84.2469 51.8116 84.1182 51.9809C83.9929 52.1469 83.9302 52.3315 83.9302 52.5347L83.3205 52.5297C83.3205 52.323 83.3713 52.1232 83.4729 51.9301C83.5745 51.737 83.7185 51.5643 83.9048 51.4119C84.0911 51.2594 84.313 51.1392 84.5704 51.0511C84.8312 50.9597 85.1174 50.9139 85.4291 50.9139C85.822 50.9139 86.1675 50.98 86.4656 51.1121C86.767 51.2442 87.0024 51.4424 87.1718 51.7066C87.3412 51.9708 87.4258 52.3027 87.4258 52.7024V55.3597C87.4258 55.5494 87.4394 55.7459 87.4665 55.9491C87.497 56.1523 87.5393 56.32 87.5935 56.4521V56.5131H86.9482C86.9076 56.3911 86.8754 56.2387 86.8517 56.0558C86.8314 55.8695 86.8212 55.6934 86.8212 55.5274ZM86.9635 53.3121L86.9736 53.7796H85.7796C85.468 53.7796 85.1886 53.8084 84.9413 53.8659C84.6974 53.9201 84.4908 54.0014 84.3214 54.1098C84.1521 54.2148 84.0216 54.3419 83.9302 54.4909C83.8421 54.6399 83.7981 54.8093 83.7981 54.999C83.7981 55.1954 83.8472 55.375 83.9454 55.5376C84.0471 55.7001 84.1893 55.8306 84.3722 55.9288C84.5585 56.0236 84.7787 56.0711 85.0327 56.0711C85.3715 56.0711 85.6696 56.0084 85.927 55.8831C86.1878 55.7577 86.4029 55.5934 86.5723 55.3902C86.7416 55.187 86.8551 54.9651 86.9127 54.7246L87.1769 55.0752C87.1329 55.2446 87.0516 55.419 86.933 55.5985C86.8178 55.7747 86.6671 55.9406 86.4808 56.0965C86.2945 56.2489 86.0743 56.3742 85.8203 56.4724C85.5696 56.5673 85.2851 56.6147 84.9667 56.6147C84.6076 56.6147 84.2943 56.547 84.0267 56.4115C83.7625 56.276 83.5559 56.0914 83.4069 55.8577C83.2612 55.6205 83.1884 55.353 83.1884 55.0549C83.1884 54.7839 83.246 54.5417 83.3611 54.3283C83.4763 54.1115 83.6423 53.9286 83.8591 53.7796C84.0792 53.6271 84.3434 53.512 84.6517 53.4341C84.9633 53.3528 85.3122 53.3121 85.6983 53.3121H86.9635Z" fill="white"/>
<path d="M91.5345 51.925V56.5131H90.9298V51.0156H91.5192L91.5345 51.925ZM93.4804 50.9749L93.4652 51.5338C93.3975 51.5236 93.3314 51.5152 93.267 51.5084C93.2027 51.5016 93.1333 51.4982 93.0587 51.4982C92.7945 51.4982 92.5625 51.5474 92.3626 51.6456C92.1662 51.7404 92.0002 51.8742 91.8647 52.047C91.7292 52.2163 91.6259 52.4162 91.5548 52.6465C91.4837 52.8735 91.443 53.1174 91.4328 53.3782L91.2093 53.4646C91.2093 53.1055 91.2465 52.7719 91.3211 52.4636C91.3956 52.1554 91.5091 51.8861 91.6615 51.6558C91.8173 51.422 92.0121 51.2408 92.2458 51.1121C92.4829 50.98 92.7607 50.9139 93.0791 50.9139C93.157 50.9139 93.2332 50.9207 93.3077 50.9343C93.3856 50.9444 93.4432 50.958 93.4804 50.9749Z" fill="white"/>
<path d="M98.6408 51.0156V51.5135H95.887V51.0156H98.6408ZM96.8981 49.6031H97.5027V55.1768C97.5027 55.4309 97.5366 55.6222 97.6043 55.751C97.6721 55.8797 97.7601 55.966 97.8685 56.0101C97.9769 56.0541 98.0938 56.0761 98.2191 56.0761C98.3106 56.0761 98.3986 56.0711 98.4833 56.0609C98.568 56.0473 98.6442 56.0338 98.7119 56.0202L98.7373 56.5334C98.6628 56.5571 98.5663 56.5758 98.4477 56.5893C98.3292 56.6062 98.2106 56.6147 98.0921 56.6147C97.8584 56.6147 97.6517 56.5724 97.4722 56.4877C97.2927 56.3996 97.1521 56.2506 97.0505 56.0406C96.9489 55.8272 96.8981 55.5376 96.8981 55.1717V49.6031Z" fill="white"/>
<path d="M110.532 54.6941C110.532 54.4909 110.498 54.3097 110.43 54.1505C110.362 53.9913 110.25 53.849 110.095 53.7237C109.942 53.595 109.736 53.4764 109.475 53.368C109.217 53.2562 108.895 53.1461 108.509 53.0378C108.14 52.9328 107.806 52.8176 107.508 52.6923C107.21 52.5669 106.955 52.423 106.741 52.2604C106.531 52.0978 106.37 51.9081 106.258 51.6913C106.147 51.4711 106.091 51.2154 106.091 50.9241C106.091 50.6396 106.152 50.3804 106.274 50.1467C106.396 49.913 106.567 49.7115 106.787 49.5421C107.01 49.3727 107.273 49.2423 107.574 49.1509C107.879 49.0594 108.213 49.0137 108.575 49.0137C109.094 49.0137 109.541 49.1119 109.917 49.3084C110.296 49.5048 110.589 49.7707 110.796 50.1061C111.006 50.438 111.111 50.8106 111.111 51.2239H110.486C110.486 50.9021 110.41 50.6159 110.257 50.3652C110.108 50.1112 109.891 49.913 109.607 49.7707C109.326 49.6251 108.982 49.5523 108.575 49.5523C108.169 49.5523 107.827 49.6149 107.549 49.7403C107.275 49.8622 107.066 50.0265 106.924 50.2331C106.785 50.4363 106.716 50.6633 106.716 50.9139C106.716 51.0901 106.75 51.2527 106.817 51.4017C106.885 51.5474 106.995 51.6845 107.148 51.8133C107.303 51.9386 107.508 52.0571 107.762 52.1689C108.016 52.2773 108.33 52.3806 108.702 52.4789C109.095 52.5872 109.444 52.7075 109.749 52.8396C110.054 52.9717 110.311 53.1241 110.521 53.2969C110.731 53.4662 110.891 53.6644 110.999 53.8913C111.107 54.1183 111.162 54.3825 111.162 54.684C111.162 54.9854 111.097 55.2564 110.968 55.4969C110.843 55.734 110.665 55.9356 110.435 56.1015C110.208 56.2675 109.939 56.3945 109.627 56.4826C109.319 56.5707 108.982 56.6147 108.616 56.6147C108.287 56.6147 107.961 56.5724 107.635 56.4877C107.31 56.403 107.012 56.2726 106.741 56.0965C106.474 55.9169 106.258 55.6866 106.096 55.4055C105.937 55.1243 105.857 54.789 105.857 54.3994H106.477C106.477 54.7111 106.54 54.9736 106.665 55.187C106.79 55.4004 106.956 55.5731 107.163 55.7052C107.373 55.8373 107.603 55.9339 107.854 55.9948C108.108 56.0524 108.362 56.0812 108.616 56.0812C109.006 56.0812 109.343 56.0236 109.627 55.9085C109.915 55.7933 110.137 55.6324 110.293 55.4258C110.452 55.2158 110.532 54.9719 110.532 54.6941Z" fill="white"/>
<path d="M113.908 53.8507V53.683C113.908 53.2833 113.966 52.9141 114.081 52.5754C114.196 52.2367 114.361 51.9437 114.574 51.6964C114.791 51.4491 115.05 51.2577 115.351 51.1223C115.653 50.9834 115.988 50.9139 116.357 50.9139C116.73 50.9139 117.067 50.9834 117.369 51.1223C117.67 51.2577 117.929 51.4491 118.146 51.6964C118.363 51.9437 118.529 52.2367 118.644 52.5754C118.759 52.9141 118.817 53.2833 118.817 53.683V53.8507C118.817 54.2504 118.759 54.6196 118.644 54.9583C118.529 55.2937 118.363 55.585 118.146 55.8322C117.933 56.0795 117.675 56.2726 117.374 56.4115C117.072 56.547 116.737 56.6147 116.368 56.6147C115.995 56.6147 115.658 56.547 115.357 56.4115C115.055 56.2726 114.796 56.0795 114.579 55.8322C114.362 55.585 114.196 55.2937 114.081 54.9583C113.966 54.6196 113.908 54.2504 113.908 53.8507ZM114.513 53.683V53.8507C114.513 54.1522 114.554 54.4384 114.635 54.7094C114.716 54.977 114.835 55.2158 114.991 55.4258C115.147 55.6324 115.34 55.795 115.57 55.9135C115.8 56.0321 116.066 56.0914 116.368 56.0914C116.666 56.0914 116.928 56.0321 117.155 55.9135C117.386 55.795 117.579 55.6324 117.734 55.4258C117.89 55.2158 118.007 54.977 118.085 54.7094C118.166 54.4384 118.207 54.1522 118.207 53.8507V53.683C118.207 53.385 118.166 53.1021 118.085 52.8345C118.007 52.5669 117.889 52.3281 117.729 52.1181C117.574 51.9081 117.38 51.7421 117.15 51.6202C116.92 51.4982 116.656 51.4373 116.357 51.4373C116.059 51.4373 115.795 51.4982 115.565 51.6202C115.338 51.7421 115.145 51.9081 114.986 52.1181C114.83 52.3281 114.711 52.5669 114.63 52.8345C114.552 53.1021 114.513 53.385 114.513 53.683Z" fill="white"/>
<path d="M122.625 48.7088V56.5131H122.021V48.7088H122.625Z" fill="white"/>
<path d="M129.681 55.2429V51.0156H130.291V56.5131H129.706L129.681 55.2429ZM129.793 54.2267L130.108 54.2165C130.108 54.562 130.067 54.8804 129.986 55.1717C129.905 55.463 129.778 55.7171 129.605 55.9339C129.432 56.1507 129.208 56.3183 128.934 56.4369C128.66 56.5554 128.329 56.6147 127.943 56.6147C127.676 56.6147 127.43 56.5774 127.207 56.5029C126.986 56.425 126.797 56.3031 126.638 56.1371C126.478 55.9711 126.355 55.756 126.267 55.4918C126.182 55.2276 126.14 54.9075 126.14 54.5315V51.0156H126.744V54.5417C126.744 54.8364 126.776 55.082 126.841 55.2784C126.909 55.4749 127 55.6324 127.115 55.751C127.234 55.8695 127.369 55.9542 127.522 56.005C127.674 56.0558 127.838 56.0812 128.014 56.0812C128.462 56.0812 128.814 55.9948 129.071 55.8221C129.332 55.6493 129.517 55.4224 129.625 55.1412C129.737 54.8567 129.793 54.5519 129.793 54.2267Z" fill="white"/>
<path d="M135.832 51.0156V51.5135H133.078V51.0156H135.832ZM134.089 49.6031H134.694V55.1768C134.694 55.4309 134.728 55.6222 134.796 55.751C134.863 55.8797 134.951 55.966 135.06 56.0101C135.168 56.0541 135.285 56.0761 135.41 56.0761C135.502 56.0761 135.59 56.0711 135.675 56.0609C135.759 56.0473 135.836 56.0338 135.903 56.0202L135.929 56.5334C135.854 56.5571 135.758 56.5758 135.639 56.5893C135.521 56.6062 135.402 56.6147 135.283 56.6147C135.05 56.6147 134.843 56.5724 134.664 56.4877C134.484 56.3996 134.343 56.2506 134.242 56.0406C134.14 55.8272 134.089 55.5376 134.089 55.1717V49.6031Z" fill="white"/>
<path d="M139.656 51.0156V56.5131H139.052V51.0156H139.656ZM138.945 49.4252C138.945 49.3101 138.98 49.2135 139.052 49.1356C139.126 49.0543 139.228 49.0137 139.356 49.0137C139.485 49.0137 139.587 49.0543 139.661 49.1356C139.739 49.2135 139.778 49.3101 139.778 49.4252C139.778 49.537 139.739 49.6336 139.661 49.7148C139.587 49.7928 139.485 49.8317 139.356 49.8317C139.228 49.8317 139.126 49.7928 139.052 49.7148C138.98 49.6336 138.945 49.537 138.945 49.4252Z" fill="white"/>
<path d="M142.855 53.8507V53.683C142.855 53.2833 142.913 52.9141 143.028 52.5754C143.143 52.2367 143.308 51.9437 143.521 51.6964C143.738 51.4491 143.997 51.2577 144.298 51.1223C144.6 50.9834 144.935 50.9139 145.304 50.9139C145.677 50.9139 146.014 50.9834 146.315 51.1223C146.617 51.2577 146.876 51.4491 147.093 51.6964C147.31 51.9437 147.476 52.2367 147.591 52.5754C147.706 52.9141 147.764 53.2833 147.764 53.683V53.8507C147.764 54.2504 147.706 54.6196 147.591 54.9583C147.476 55.2937 147.31 55.585 147.093 55.8322C146.879 56.0795 146.622 56.2726 146.321 56.4115C146.019 56.547 145.684 56.6147 145.315 56.6147C144.942 56.6147 144.605 56.547 144.303 56.4115C144.002 56.2726 143.743 56.0795 143.526 55.8322C143.309 55.585 143.143 55.2937 143.028 54.9583C142.913 54.6196 142.855 54.2504 142.855 53.8507ZM143.46 53.683V53.8507C143.46 54.1522 143.501 54.4384 143.582 54.7094C143.663 54.977 143.782 55.2158 143.938 55.4258C144.093 55.6324 144.286 55.795 144.517 55.9135C144.747 56.0321 145.013 56.0914 145.315 56.0914C145.613 56.0914 145.875 56.0321 146.102 55.9135C146.332 55.795 146.525 55.6324 146.681 55.4258C146.837 55.2158 146.954 54.977 147.032 54.7094C147.113 54.4384 147.154 54.1522 147.154 53.8507V53.683C147.154 53.385 147.113 53.1021 147.032 52.8345C146.954 52.5669 146.835 52.3281 146.676 52.1181C146.52 51.9081 146.327 51.7421 146.097 51.6202C145.867 51.4982 145.602 51.4373 145.304 51.4373C145.006 51.4373 144.742 51.4982 144.512 51.6202C144.285 51.7421 144.092 51.9081 143.933 52.1181C143.777 52.3281 143.658 52.5669 143.577 52.8345C143.499 53.1021 143.46 53.385 143.46 53.683Z" fill="white"/>
<path d="M151.501 52.1892V56.5131H150.897V51.0156H151.476L151.501 52.1892ZM151.364 53.4239L151.095 53.2715C151.115 52.9463 151.181 52.6414 151.293 52.3569C151.405 52.0724 151.555 51.8217 151.745 51.6049C151.938 51.3882 152.163 51.2188 152.421 51.0969C152.682 50.9749 152.97 50.9139 153.285 50.9139C153.559 50.9139 153.805 50.9512 154.021 51.0257C154.238 51.1002 154.423 51.2188 154.575 51.3814C154.728 51.544 154.843 51.7523 154.921 52.0063C155.002 52.2604 155.043 52.5703 155.043 52.9361V56.5131H154.433V52.9311C154.433 52.5517 154.38 52.2553 154.275 52.0419C154.17 51.8251 154.021 51.671 153.828 51.5795C153.635 51.4881 153.407 51.4424 153.142 51.4424C152.851 51.4424 152.595 51.5067 152.375 51.6354C152.158 51.7608 151.975 51.925 151.826 52.1283C151.681 52.3281 151.569 52.5432 151.491 52.7735C151.413 53.0005 151.371 53.2173 151.364 53.4239Z" fill="white"/>
<path d="M161.783 55.1108C161.783 54.9617 161.746 54.8144 161.671 54.6687C161.597 54.5231 161.453 54.3893 161.239 54.2673C161.029 54.1454 160.72 54.0421 160.31 53.9574C160.005 53.8897 159.732 53.8134 159.492 53.7288C159.255 53.6441 159.055 53.5425 158.892 53.4239C158.73 53.3053 158.606 53.1631 158.521 52.9971C158.437 52.8311 158.394 52.6347 158.394 52.4077C158.394 52.2045 158.438 52.0131 158.526 51.8336C158.618 51.6507 158.746 51.4915 158.912 51.356C159.082 51.2171 159.285 51.1087 159.522 51.0308C159.763 50.9529 160.032 50.9139 160.33 50.9139C160.753 50.9139 161.116 50.9868 161.417 51.1324C161.722 51.2747 161.954 51.4695 162.113 51.7167C162.276 51.964 162.357 52.2434 162.357 52.5551H161.753C161.753 52.3654 161.697 52.1859 161.585 52.0165C161.477 51.8471 161.316 51.7083 161.102 51.5999C160.892 51.4915 160.635 51.4373 160.33 51.4373C160.015 51.4373 159.759 51.4847 159.563 51.5795C159.366 51.6744 159.222 51.7946 159.131 51.9403C159.043 52.0859 158.999 52.2367 158.999 52.3925C158.999 52.5144 159.017 52.6262 159.055 52.7278C159.095 52.8261 159.166 52.9175 159.268 53.0022C159.373 53.0869 159.522 53.1665 159.715 53.241C159.908 53.3155 160.159 53.3883 160.467 53.4595C160.911 53.5577 161.273 53.6779 161.554 53.8202C161.839 53.9591 162.049 54.1318 162.185 54.3385C162.32 54.5417 162.388 54.789 162.388 55.0803C162.388 55.3072 162.34 55.5155 162.245 55.7052C162.151 55.8915 162.013 56.0524 161.834 56.1879C161.658 56.3234 161.444 56.4284 161.194 56.5029C160.946 56.5774 160.669 56.6147 160.36 56.6147C159.896 56.6147 159.504 56.5385 159.182 56.3861C158.863 56.2303 158.621 56.027 158.455 55.7764C158.293 55.5223 158.211 55.253 158.211 54.9685H158.816C158.836 55.253 158.926 55.4783 159.085 55.6443C159.244 55.8068 159.439 55.922 159.669 55.9898C159.903 56.0575 160.134 56.0914 160.36 56.0914C160.672 56.0914 160.933 56.0456 161.143 55.9542C161.353 55.8627 161.512 55.7425 161.621 55.5934C161.729 55.4444 161.783 55.2835 161.783 55.1108Z" fill="white"/>
<path d="M68.6658 54.6941C68.6658 54.4909 68.6319 54.3097 68.5641 54.1505C68.4964 53.9913 68.3846 53.849 68.2288 53.7237C68.0764 53.595 67.8698 53.4764 67.6089 53.368C67.3515 53.2562 67.0297 53.1461 66.6436 53.0378C66.2743 52.9328 65.9407 52.8176 65.6426 52.6923C65.3445 52.5669 65.0888 52.423 64.8754 52.2604C64.6654 52.0978 64.5045 51.9081 64.3927 51.6913C64.2809 51.4711 64.2251 51.2154 64.2251 50.9241C64.2251 50.6396 64.286 50.3804 64.408 50.1467C64.5299 49.913 64.701 49.7115 64.9211 49.5421C65.1447 49.3727 65.4072 49.2423 65.7087 49.1509C66.0135 49.0594 66.3472 49.0137 66.7096 49.0137C67.2279 49.0137 67.675 49.1119 68.051 49.3084C68.4303 49.5048 68.7233 49.7707 68.93 50.1061C69.14 50.438 69.245 50.8106 69.245 51.2239H68.62C68.62 50.9021 68.5438 50.6159 68.3914 50.3652C68.2423 50.1112 68.0256 49.913 67.741 49.7707C67.4599 49.6251 67.1161 49.5523 66.7096 49.5523C66.3031 49.5523 65.961 49.6149 65.6833 49.7403C65.4089 49.8622 65.2006 50.0265 65.0583 50.2331C64.9194 50.4363 64.85 50.6633 64.85 50.9139C64.85 51.0901 64.8839 51.2527 64.9516 51.4017C65.0194 51.5474 65.1295 51.6845 65.2819 51.8133C65.4377 51.9386 65.6426 52.0571 65.8967 52.1689C66.1507 52.2773 66.464 52.3806 66.8366 52.4789C67.2296 52.5872 67.5784 52.7075 67.8833 52.8396C68.1882 52.9717 68.4456 53.1241 68.6556 53.2969C68.8656 53.4662 69.0248 53.6644 69.1332 53.8913C69.2416 54.1183 69.2958 54.3825 69.2958 54.684C69.2958 54.9854 69.2314 55.2564 69.1027 55.4969C68.9774 55.734 68.7996 55.9356 68.5692 56.1015C68.3423 56.2675 68.073 56.3945 67.7614 56.4826C67.4531 56.5707 67.1161 56.6147 66.7503 56.6147C66.4217 56.6147 66.0948 56.5724 65.7696 56.4877C65.4445 56.403 65.1464 56.2726 64.8754 56.0965C64.6078 55.9169 64.3927 55.6866 64.2301 55.4055C64.0709 55.1243 63.9913 54.789 63.9913 54.3994H64.6112C64.6112 54.7111 64.6739 54.9736 64.7992 55.187C64.9245 55.4004 65.0905 55.5731 65.2971 55.7052C65.5071 55.8373 65.7375 55.9339 65.9881 55.9948C66.2422 56.0524 66.4962 56.0812 66.7503 56.0812C67.1398 56.0812 67.4768 56.0236 67.7614 55.9085C68.0493 55.7933 68.2711 55.6324 68.427 55.4258C68.5862 55.2158 68.6658 54.9719 68.6658 54.6941Z" stroke="white" mask="url(#path-11-outside-1_125_47)"/>
<path d="M72.9522 52.1537V56.5131H72.3425V51.0156H72.9268L72.9522 52.1537ZM72.8404 53.4239L72.5457 53.2715C72.5661 52.9463 72.627 52.6414 72.7286 52.3569C72.8337 52.0724 72.9793 51.8217 73.1656 51.6049C73.3519 51.3882 73.5755 51.2188 73.8363 51.0969C74.0971 50.9749 74.3935 50.9139 74.7254 50.9139C74.993 50.9139 75.2352 50.9512 75.452 51.0257C75.6722 51.0969 75.8585 51.2103 76.0109 51.3661C76.1667 51.5186 76.287 51.7184 76.3716 51.9657C76.4563 52.213 76.4987 52.5093 76.4987 52.8548V56.5131H75.894V52.8752C75.894 52.5093 75.8365 52.2231 75.7213 52.0165C75.6095 51.8099 75.452 51.6625 75.2488 51.5745C75.0489 51.4864 74.8169 51.4424 74.5527 51.4424C74.2411 51.4424 73.9769 51.5067 73.7601 51.6354C73.5467 51.7608 73.3722 51.925 73.2367 52.1283C73.1046 52.3281 73.0064 52.5432 72.942 52.7735C72.8777 53.0005 72.8438 53.2173 72.8404 53.4239ZM76.4936 52.9463L76.0871 52.9565C76.1041 52.6889 76.165 52.4331 76.27 52.1892C76.3784 51.9454 76.5258 51.7286 76.7121 51.5389C76.8984 51.3458 77.1202 51.1934 77.3777 51.0816C77.6385 50.9698 77.9315 50.9139 78.2567 50.9139C78.5412 50.9139 78.7952 50.9529 79.0188 51.0308C79.2424 51.1053 79.4303 51.2256 79.5828 51.3915C79.7386 51.5541 79.8571 51.7625 79.9384 52.0165C80.0197 52.2705 80.0604 52.5754 80.0604 52.9311V56.5131H79.4507V52.926C79.4507 52.5364 79.3931 52.235 79.2779 52.0216C79.1661 51.8048 79.0103 51.6541 78.8105 51.5694C78.6106 51.4847 78.3769 51.4424 78.1093 51.4424C77.8451 51.4457 77.6131 51.4949 77.4132 51.5897C77.2134 51.6812 77.0457 51.8031 76.9102 51.9555C76.7781 52.1046 76.6765 52.2655 76.6054 52.4382C76.5376 52.611 76.5004 52.7803 76.4936 52.9463Z" stroke="white" mask="url(#path-11-outside-1_125_47)"/>
<path d="M86.8212 55.5274V52.6923C86.8212 52.4314 86.767 52.2062 86.6586 52.0165C86.5502 51.8268 86.391 51.6812 86.181 51.5795C85.971 51.4779 85.7119 51.4271 85.4037 51.4271C85.1191 51.4271 84.8651 51.4779 84.6415 51.5795C84.4213 51.6778 84.2469 51.8116 84.1182 51.9809C83.9929 52.1469 83.9302 52.3315 83.9302 52.5347L83.3205 52.5297C83.3205 52.323 83.3713 52.1232 83.4729 51.9301C83.5745 51.737 83.7185 51.5643 83.9048 51.4119C84.0911 51.2594 84.313 51.1392 84.5704 51.0511C84.8312 50.9597 85.1174 50.9139 85.4291 50.9139C85.822 50.9139 86.1675 50.98 86.4656 51.1121C86.767 51.2442 87.0024 51.4424 87.1718 51.7066C87.3412 51.9708 87.4258 52.3027 87.4258 52.7024V55.3597C87.4258 55.5494 87.4394 55.7459 87.4665 55.9491C87.497 56.1523 87.5393 56.32 87.5935 56.4521V56.5131H86.9482C86.9076 56.3911 86.8754 56.2387 86.8517 56.0558C86.8314 55.8695 86.8212 55.6934 86.8212 55.5274ZM86.9635 53.3121L86.9736 53.7796H85.7796C85.468 53.7796 85.1886 53.8084 84.9413 53.8659C84.6974 53.9201 84.4908 54.0014 84.3214 54.1098C84.1521 54.2148 84.0216 54.3419 83.9302 54.4909C83.8421 54.6399 83.7981 54.8093 83.7981 54.999C83.7981 55.1954 83.8472 55.375 83.9454 55.5376C84.0471 55.7001 84.1893 55.8306 84.3722 55.9288C84.5585 56.0236 84.7787 56.0711 85.0327 56.0711C85.3715 56.0711 85.6696 56.0084 85.927 55.8831C86.1878 55.7577 86.4029 55.5934 86.5723 55.3902C86.7416 55.187 86.8551 54.9651 86.9127 54.7246L87.1769 55.0752C87.1329 55.2446 87.0516 55.419 86.933 55.5985C86.8178 55.7747 86.6671 55.9406 86.4808 56.0965C86.2945 56.2489 86.0743 56.3742 85.8203 56.4724C85.5696 56.5673 85.2851 56.6147 84.9667 56.6147C84.6076 56.6147 84.2943 56.547 84.0267 56.4115C83.7625 56.276 83.5559 56.0914 83.4069 55.8577C83.2612 55.6205 83.1884 55.353 83.1884 55.0549C83.1884 54.7839 83.246 54.5417 83.3611 54.3283C83.4763 54.1115 83.6423 53.9286 83.8591 53.7796C84.0792 53.6271 84.3434 53.512 84.6517 53.4341C84.9633 53.3528 85.3122 53.3121 85.6983 53.3121H86.9635Z" stroke="white" mask="url(#path-11-outside-1_125_47)"/>
<path d="M91.5345 51.925V56.5131H90.9298V51.0156H91.5192L91.5345 51.925ZM93.4804 50.9749L93.4652 51.5338C93.3975 51.5236 93.3314 51.5152 93.267 51.5084C93.2027 51.5016 93.1333 51.4982 93.0587 51.4982C92.7945 51.4982 92.5625 51.5474 92.3626 51.6456C92.1662 51.7404 92.0002 51.8742 91.8647 52.047C91.7292 52.2163 91.6259 52.4162 91.5548 52.6465C91.4837 52.8735 91.443 53.1174 91.4328 53.3782L91.2093 53.4646C91.2093 53.1055 91.2465 52.7719 91.3211 52.4636C91.3956 52.1554 91.5091 51.8861 91.6615 51.6558C91.8173 51.422 92.0121 51.2408 92.2458 51.1121C92.4829 50.98 92.7607 50.9139 93.0791 50.9139C93.157 50.9139 93.2332 50.9207 93.3077 50.9343C93.3856 50.9444 93.4432 50.958 93.4804 50.9749Z" stroke="white" mask="url(#path-11-outside-1_125_47)"/>
<path d="M98.6408 51.0156V51.5135H95.887V51.0156H98.6408ZM96.8981 49.6031H97.5027V55.1768C97.5027 55.4309 97.5366 55.6222 97.6043 55.751C97.6721 55.8797 97.7601 55.966 97.8685 56.0101C97.9769 56.0541 98.0938 56.0761 98.2191 56.0761C98.3106 56.0761 98.3986 56.0711 98.4833 56.0609C98.568 56.0473 98.6442 56.0338 98.7119 56.0202L98.7373 56.5334C98.6628 56.5571 98.5663 56.5758 98.4477 56.5893C98.3292 56.6062 98.2106 56.6147 98.0921 56.6147C97.8584 56.6147 97.6517 56.5724 97.4722 56.4877C97.2927 56.3996 97.1521 56.2506 97.0505 56.0406C96.9489 55.8272 96.8981 55.5376 96.8981 55.1717V49.6031Z" stroke="white" mask="url(#path-11-outside-1_125_47)"/>
<path d="M110.532 54.6941C110.532 54.4909 110.498 54.3097 110.43 54.1505C110.362 53.9913 110.25 53.849 110.095 53.7237C109.942 53.595 109.736 53.4764 109.475 53.368C109.217 53.2562 108.895 53.1461 108.509 53.0378C108.14 52.9328 107.806 52.8176 107.508 52.6923C107.21 52.5669 106.955 52.423 106.741 52.2604C106.531 52.0978 106.37 51.9081 106.258 51.6913C106.147 51.4711 106.091 51.2154 106.091 50.9241C106.091 50.6396 106.152 50.3804 106.274 50.1467C106.396 49.913 106.567 49.7115 106.787 49.5421C107.01 49.3727 107.273 49.2423 107.574 49.1509C107.879 49.0594 108.213 49.0137 108.575 49.0137C109.094 49.0137 109.541 49.1119 109.917 49.3084C110.296 49.5048 110.589 49.7707 110.796 50.1061C111.006 50.438 111.111 50.8106 111.111 51.2239H110.486C110.486 50.9021 110.41 50.6159 110.257 50.3652C110.108 50.1112 109.891 49.913 109.607 49.7707C109.326 49.6251 108.982 49.5523 108.575 49.5523C108.169 49.5523 107.827 49.6149 107.549 49.7403C107.275 49.8622 107.066 50.0265 106.924 50.2331C106.785 50.4363 106.716 50.6633 106.716 50.9139C106.716 51.0901 106.75 51.2527 106.817 51.4017C106.885 51.5474 106.995 51.6845 107.148 51.8133C107.303 51.9386 107.508 52.0571 107.762 52.1689C108.016 52.2773 108.33 52.3806 108.702 52.4789C109.095 52.5872 109.444 52.7075 109.749 52.8396C110.054 52.9717 110.311 53.1241 110.521 53.2969C110.731 53.4662 110.891 53.6644 110.999 53.8913C111.107 54.1183 111.162 54.3825 111.162 54.684C111.162 54.9854 111.097 55.2564 110.968 55.4969C110.843 55.734 110.665 55.9356 110.435 56.1015C110.208 56.2675 109.939 56.3945 109.627 56.4826C109.319 56.5707 108.982 56.6147 108.616 56.6147C108.287 56.6147 107.961 56.5724 107.635 56.4877C107.31 56.403 107.012 56.2726 106.741 56.0965C106.474 55.9169 106.258 55.6866 106.096 55.4055C105.937 55.1243 105.857 54.789 105.857 54.3994H106.477C106.477 54.7111 106.54 54.9736 106.665 55.187C106.79 55.4004 106.956 55.5731 107.163 55.7052C107.373 55.8373 107.603 55.9339 107.854 55.9948C108.108 56.0524 108.362 56.0812 108.616 56.0812C109.006 56.0812 109.343 56.0236 109.627 55.9085C109.915 55.7933 110.137 55.6324 110.293 55.4258C110.452 55.2158 110.532 54.9719 110.532 54.6941Z" stroke="white" mask="url(#path-11-outside-1_125_47)"/>
<path d="M113.908 53.8507V53.683C113.908 53.2833 113.966 52.9141 114.081 52.5754C114.196 52.2367 114.361 51.9437 114.574 51.6964C114.791 51.4491 115.05 51.2577 115.351 51.1223C115.653 50.9834 115.988 50.9139 116.357 50.9139C116.73 50.9139 117.067 50.9834 117.369 51.1223C117.67 51.2577 117.929 51.4491 118.146 51.6964C118.363 51.9437 118.529 52.2367 118.644 52.5754C118.759 52.9141 118.817 53.2833 118.817 53.683V53.8507C118.817 54.2504 118.759 54.6196 118.644 54.9583C118.529 55.2937 118.363 55.585 118.146 55.8322C117.933 56.0795 117.675 56.2726 117.374 56.4115C117.072 56.547 116.737 56.6147 116.368 56.6147C115.995 56.6147 115.658 56.547 115.357 56.4115C115.055 56.2726 114.796 56.0795 114.579 55.8322C114.362 55.585 114.196 55.2937 114.081 54.9583C113.966 54.6196 113.908 54.2504 113.908 53.8507ZM114.513 53.683V53.8507C114.513 54.1522 114.554 54.4384 114.635 54.7094C114.716 54.977 114.835 55.2158 114.991 55.4258C115.147 55.6324 115.34 55.795 115.57 55.9135C115.8 56.0321 116.066 56.0914 116.368 56.0914C116.666 56.0914 116.928 56.0321 117.155 55.9135C117.386 55.795 117.579 55.6324 117.734 55.4258C117.89 55.2158 118.007 54.977 118.085 54.7094C118.166 54.4384 118.207 54.1522 118.207 53.8507V53.683C118.207 53.385 118.166 53.1021 118.085 52.8345C118.007 52.5669 117.889 52.3281 117.729 52.1181C117.574 51.9081 117.38 51.7421 117.15 51.6202C116.92 51.4982 116.656 51.4373 116.357 51.4373C116.059 51.4373 115.795 51.4982 115.565 51.6202C115.338 51.7421 115.145 51.9081 114.986 52.1181C114.83 52.3281 114.711 52.5669 114.63 52.8345C114.552 53.1021 114.513 53.385 114.513 53.683Z" stroke="white" mask="url(#path-11-outside-1_125_47)"/>
<path d="M122.625 48.7088V56.5131H122.021V48.7088H122.625Z" stroke="white" mask="url(#path-11-outside-1_125_47)"/>
<path d="M129.681 55.2429V51.0156H130.291V56.5131H129.706L129.681 55.2429ZM129.793 54.2267L130.108 54.2165C130.108 54.562 130.067 54.8804 129.986 55.1717C129.905 55.463 129.778 55.7171 129.605 55.9339C129.432 56.1507 129.208 56.3183 128.934 56.4369C128.66 56.5554 128.329 56.6147 127.943 56.6147C127.676 56.6147 127.43 56.5774 127.207 56.5029C126.986 56.425 126.797 56.3031 126.638 56.1371C126.478 55.9711 126.355 55.756 126.267 55.4918C126.182 55.2276 126.14 54.9075 126.14 54.5315V51.0156H126.744V54.5417C126.744 54.8364 126.776 55.082 126.841 55.2784C126.909 55.4749 127 55.6324 127.115 55.751C127.234 55.8695 127.369 55.9542 127.522 56.005C127.674 56.0558 127.838 56.0812 128.014 56.0812C128.462 56.0812 128.814 55.9948 129.071 55.8221C129.332 55.6493 129.517 55.4224 129.625 55.1412C129.737 54.8567 129.793 54.5519 129.793 54.2267Z" stroke="white" mask="url(#path-11-outside-1_125_47)"/>
<path d="M135.832 51.0156V51.5135H133.078V51.0156H135.832ZM134.089 49.6031H134.694V55.1768C134.694 55.4309 134.728 55.6222 134.796 55.751C134.863 55.8797 134.951 55.966 135.06 56.0101C135.168 56.0541 135.285 56.0761 135.41 56.0761C135.502 56.0761 135.59 56.0711 135.675 56.0609C135.759 56.0473 135.836 56.0338 135.903 56.0202L135.929 56.5334C135.854 56.5571 135.758 56.5758 135.639 56.5893C135.521 56.6062 135.402 56.6147 135.283 56.6147C135.05 56.6147 134.843 56.5724 134.664 56.4877C134.484 56.3996 134.343 56.2506 134.242 56.0406C134.14 55.8272 134.089 55.5376 134.089 55.1717V49.6031Z" stroke="white" mask="url(#path-11-outside-1_125_47)"/>
<path d="M139.656 51.0156V56.5131H139.052V51.0156H139.656ZM138.945 49.4252C138.945 49.3101 138.98 49.2135 139.052 49.1356C139.126 49.0543 139.228 49.0137 139.356 49.0137C139.485 49.0137 139.587 49.0543 139.661 49.1356C139.739 49.2135 139.778 49.3101 139.778 49.4252C139.778 49.537 139.739 49.6336 139.661 49.7148C139.587 49.7928 139.485 49.8317 139.356 49.8317C139.228 49.8317 139.126 49.7928 139.052 49.7148C138.98 49.6336 138.945 49.537 138.945 49.4252Z" stroke="white" mask="url(#path-11-outside-1_125_47)"/>
<path d="M142.855 53.8507V53.683C142.855 53.2833 142.913 52.9141 143.028 52.5754C143.143 52.2367 143.308 51.9437 143.521 51.6964C143.738 51.4491 143.997 51.2577 144.298 51.1223C144.6 50.9834 144.935 50.9139 145.304 50.9139C145.677 50.9139 146.014 50.9834 146.315 51.1223C146.617 51.2577 146.876 51.4491 147.093 51.6964C147.31 51.9437 147.476 52.2367 147.591 52.5754C147.706 52.9141 147.764 53.2833 147.764 53.683V53.8507C147.764 54.2504 147.706 54.6196 147.591 54.9583C147.476 55.2937 147.31 55.585 147.093 55.8322C146.879 56.0795 146.622 56.2726 146.321 56.4115C146.019 56.547 145.684 56.6147 145.315 56.6147C144.942 56.6147 144.605 56.547 144.303 56.4115C144.002 56.2726 143.743 56.0795 143.526 55.8322C143.309 55.585 143.143 55.2937 143.028 54.9583C142.913 54.6196 142.855 54.2504 142.855 53.8507ZM143.46 53.683V53.8507C143.46 54.1522 143.501 54.4384 143.582 54.7094C143.663 54.977 143.782 55.2158 143.938 55.4258C144.093 55.6324 144.286 55.795 144.517 55.9135C144.747 56.0321 145.013 56.0914 145.315 56.0914C145.613 56.0914 145.875 56.0321 146.102 55.9135C146.332 55.795 146.525 55.6324 146.681 55.4258C146.837 55.2158 146.954 54.977 147.032 54.7094C147.113 54.4384 147.154 54.1522 147.154 53.8507V53.683C147.154 53.385 147.113 53.1021 147.032 52.8345C146.954 52.5669 146.835 52.3281 146.676 52.1181C146.52 51.9081 146.327 51.7421 146.097 51.6202C145.867 51.4982 145.602 51.4373 145.304 51.4373C145.006 51.4373 144.742 51.4982 144.512 51.6202C144.285 51.7421 144.092 51.9081 143.933 52.1181C143.777 52.3281 143.658 52.5669 143.577 52.8345C143.499 53.1021 143.46 53.385 143.46 53.683Z" stroke="white" mask="url(#path-11-outside-1_125_47)"/>
<path d="M151.501 52.1892V56.5131H150.897V51.0156H151.476L151.501 52.1892ZM151.364 53.4239L151.095 53.2715C151.115 52.9463 151.181 52.6414 151.293 52.3569C151.405 52.0724 151.555 51.8217 151.745 51.6049C151.938 51.3882 152.163 51.2188 152.421 51.0969C152.682 50.9749 152.97 50.9139 153.285 50.9139C153.559 50.9139 153.805 50.9512 154.021 51.0257C154.238 51.1002 154.423 51.2188 154.575 51.3814C154.728 51.544 154.843 51.7523 154.921 52.0063C155.002 52.2604 155.043 52.5703 155.043 52.9361V56.5131H154.433V52.9311C154.433 52.5517 154.38 52.2553 154.275 52.0419C154.17 51.8251 154.021 51.671 153.828 51.5795C153.635 51.4881 153.407 51.4424 153.142 51.4424C152.851 51.4424 152.595 51.5067 152.375 51.6354C152.158 51.7608 151.975 51.925 151.826 52.1283C151.681 52.3281 151.569 52.5432 151.491 52.7735C151.413 53.0005 151.371 53.2173 151.364 53.4239Z" stroke="white" mask="url(#path-11-outside-1_125_47)"/>
<path d="M161.783 55.1108C161.783 54.9617 161.746 54.8144 161.671 54.6687C161.597 54.5231 161.453 54.3893 161.239 54.2673C161.029 54.1454 160.72 54.0421 160.31 53.9574C160.005 53.8897 159.732 53.8134 159.492 53.7288C159.255 53.6441 159.055 53.5425 158.892 53.4239C158.73 53.3053 158.606 53.1631 158.521 52.9971C158.437 52.8311 158.394 52.6347 158.394 52.4077C158.394 52.2045 158.438 52.0131 158.526 51.8336C158.618 51.6507 158.746 51.4915 158.912 51.356C159.082 51.2171 159.285 51.1087 159.522 51.0308C159.763 50.9529 160.032 50.9139 160.33 50.9139C160.753 50.9139 161.116 50.9868 161.417 51.1324C161.722 51.2747 161.954 51.4695 162.113 51.7167C162.276 51.964 162.357 52.2434 162.357 52.5551H161.753C161.753 52.3654 161.697 52.1859 161.585 52.0165C161.477 51.8471 161.316 51.7083 161.102 51.5999C160.892 51.4915 160.635 51.4373 160.33 51.4373C160.015 51.4373 159.759 51.4847 159.563 51.5795C159.366 51.6744 159.222 51.7946 159.131 51.9403C159.043 52.0859 158.999 52.2367 158.999 52.3925C158.999 52.5144 159.017 52.6262 159.055 52.7278C159.095 52.8261 159.166 52.9175 159.268 53.0022C159.373 53.0869 159.522 53.1665 159.715 53.241C159.908 53.3155 160.159 53.3883 160.467 53.4595C160.911 53.5577 161.273 53.6779 161.554 53.8202C161.839 53.9591 162.049 54.1318 162.185 54.3385C162.32 54.5417 162.388 54.789 162.388 55.0803C162.388 55.3072 162.34 55.5155 162.245 55.7052C162.151 55.8915 162.013 56.0524 161.834 56.1879C161.658 56.3234 161.444 56.4284 161.194 56.5029C160.946 56.5774 160.669 56.6147 160.36 56.6147C159.896 56.6147 159.504 56.5385 159.182 56.3861C158.863 56.2303 158.621 56.027 158.455 55.7764C158.293 55.5223 158.211 55.253 158.211 54.9685H158.816C158.836 55.253 158.926 55.4783 159.085 55.6443C159.244 55.8068 159.439 55.922 159.669 55.9898C159.903 56.0575 160.134 56.0914 160.36 56.0914C160.672 56.0914 160.933 56.0456 161.143 55.9542C161.353 55.8627 161.512 55.7425 161.621 55.5934C161.729 55.4444 161.783 55.2835 161.783 55.1108Z" stroke="white" mask="url(#path-11-outside-1_125_47)"/>
</svg>
